<svg xmlns="http://www.w3.org/2000/svg" viewBox="397 263 1250 1278" width="1024" height="1047">
<rect x="397" y="263" width="1250" height="1278" fill="rgb(10,4,24)"/>
<!-- Text paths (rendered first, underneath the rotated mark) -->
<path d="M 1033.61 1263.08 L 1052.92 1263.1 L 1052.75 1467.56 L 1033.05 1467.6 L 1032.97 1441.88 C 1032.56 1442.57 1032.15 1443.25 1031.72 1443.93 C 1011.23 1476.42 967.249 1480.35 936.694 1460.84 C 908.946 1442.25 904.154 1410.47 906.843 1379.43 C 912.334 1316.04 995.26 1292.71 1033.26 1344.15 C 1033.06 1317.89 1032.96 1289.21 1033.61 1263.08 z" fill="rgb(254,254,254)"/>
<path d="M 979.409 1333.41 C 991.949 1334.11 1003.03 1335.79 1013.52 1344.09 C 1038.95 1364.2 1038.12 1415.85 1018.05 1439.25 C 1007.92 1451.07 993.645 1454.67 978.692 1455.43 C 924.335 1454.06 912.465 1388.35 938.742 1350.36 C 947.471 1337.75 964.845 1334.45 979.409 1333.41 z" fill="rgb(10,4,24)"/>
<path d="M 1211.82 1318.43 C 1253.99 1311.04 1294.11 1339.41 1301.2 1381.63 C 1308.29 1423.85 1279.64 1463.77 1237.37 1470.56 C 1195.52 1477.28 1156.09 1448.98 1149.07 1407.18 C 1142.05 1365.38 1170.07 1325.74 1211.82 1318.43 z" fill="rgb(254,254,254)"/>
<path d="M 1220.34 1333.35 C 1266.1 1330.85 1285.37 1368.77 1278.91 1408.91 C 1274.41 1436.88 1259.64 1450.84 1232.26 1456 C 1217.42 1456.5 1205.12 1455 1192.75 1445.8 C 1161.36 1422.46 1162.21 1359.98 1197.07 1340.13 C 1205.05 1335.58 1211.53 1334.41 1220.34 1333.35 z" fill="rgb(10,4,24)"/>
<path d="M 530.612 1259.36 C 575.058 1255.45 608.025 1270.25 612.711 1318.69 L 594.341 1318.69 C 591.793 1307.16 589.465 1299.13 580.558 1290.41 C 561.815 1272.06 518.519 1271.09 500.686 1291.24 C 495.093 1297.66 492.4 1306.11 493.244 1314.58 C 497.406 1358.69 578.469 1347.28 605.335 1374.75 C 633.713 1403.76 622.343 1447.17 587.056 1464.05 C 574.068 1470.26 561.783 1471.51 547.554 1472.07 C 505.909 1472.82 467.865 1454.06 466.712 1408.16 L 486.495 1408.07 L 486.623 1409.33 C 488.037 1422.22 492.701 1433.1 503.307 1441.35 C 532.432 1464.02 607.212 1457.68 599.438 1407.4 C 595.378 1381.15 562.279 1375.54 540.748 1370.16 C 507.285 1361.79 468.473 1352.15 472.916 1308.27 C 474.037 1296.85 475.644 1291.99 482.97 1282.51 C 495.148 1266.76 511.791 1261.91 530.612 1259.36 z" fill="rgb(254,254,254)"/>
<path d="M 1503.49 1259.37 C 1546.9 1257.06 1583.84 1285.68 1565.36 1334.99 C 1560.78 1347.21 1544.54 1355.45 1532.37 1359.49 C 1544.2 1362.66 1553.93 1366.33 1563.09 1374.7 C 1584.91 1395.14 1580.77 1431.84 1561.17 1452.21 C 1529.65 1484.97 1461.55 1476.99 1443.75 1433.25 C 1439.9 1423.79 1439.96 1415.58 1439.95 1405.5 C 1445.94 1405.29 1453.01 1405.5 1459.07 1405.55 C 1459.94 1424.49 1462.59 1433.65 1478.27 1445.41 C 1487.64 1450.7 1491.61 1451.71 1502.54 1453.4 C 1542.72 1459.59 1576.19 1417.38 1548.73 1383.25 C 1537.14 1368.84 1513.17 1368.27 1494.89 1367.87 L 1494.66 1352.47 C 1518.28 1353.58 1547.25 1349.5 1551 1320.34 C 1552.37 1310.02 1549.5 1299.58 1543.04 1291.41 C 1528 1272.73 1495.45 1272.08 1477.3 1287.22 C 1468.12 1294.86 1465.47 1305.79 1464.56 1317.25 C 1457.86 1317.25 1450.97 1317.45 1444.25 1317.56 C 1447.12 1281.25 1468.7 1263.51 1503.49 1259.37 z" fill="rgb(254,254,254)"/>
<path d="M 748.779 1320.81 L 767.952 1320.95 L 767.481 1382.24 C 767.312 1401.09 764.138 1430.4 778.286 1444.54 C 793.098 1459.34 825.516 1459.02 840.409 1444 C 857.327 1426.94 853.577 1403.68 854.111 1381.82 C 854.26 1361.63 854.084 1341.17 854.047 1320.89 L 873.115 1320.93 L 873.017 1467.26 L 855.857 1467.08 C 855.798 1460.17 856.02 1450.8 854.917 1444.24 C 854.245 1445.29 853.582 1446.34 852.929 1447.4 C 841.602 1466.42 824.102 1472.19 803.437 1472.08 C 743.122 1471.77 747.931 1421.44 748.383 1379.3 L 748.779 1320.81 z" fill="rgb(254,254,254)"/>
<path d="M 664.025 1278.89 L 683.131 1278.93 L 683.105 1320.87 L 718.866 1320.97 L 718.862 1337.59 L 683.425 1337.35 C 683.18 1353.95 681.053 1431.82 685.665 1441.96 C 691.577 1454.94 707.734 1447.85 717.471 1451.86 L 718.02 1454.75 L 717.898 1467.5 C 712.596 1467.7 707.292 1467.83 701.987 1467.89 C 657.902 1467.97 663.942 1436.54 663.967 1403.44 L 664.085 1336.96 L 638.253 1336.87 L 638.338 1320.79 L 664.051 1320.85 L 664.025 1278.89 z" fill="rgb(254,254,254)"/>
<path d="M 1380.07 1260.98 L 1392.92 1260.95 L 1392.88 1467.6 L 1373.94 1467.46 L 1373.94 1406.5 L 1373.85 1283.75 C 1358.51 1294.94 1341.69 1304.44 1324.82 1313.1 L 1324.84 1293.6 C 1344.63 1283.16 1362.21 1274.69 1380.07 1260.98 z" fill="rgb(254,254,254)"/>
<path d="M 1096.98 1320.97 L 1116.39 1321.05 C 1116.6 1369.83 1116.53 1418.61 1116.18 1467.38 L 1096.9 1467.13 L 1096.98 1320.97 z" fill="rgb(254,254,254)"/>
<path d="M 1097.02 1267.09 C 1103.57 1267.05 1110.12 1267.13 1116.67 1267.35 C 1116.68 1275.24 1116.63 1283.14 1116.52 1291.03 L 1096.96 1291.02 C 1096.92 1283.04 1096.94 1275.07 1097.02 1267.09 z" fill="rgb(254,254,254)"/>
<path d="M 852.929 1447.4 C 853.582 1446.34 854.245 1445.29 854.917 1444.24 C 854.798 1445.65 854.545 1453.79 854.315 1454.18 C 853.732 1452.15 853.329 1449.53 852.929 1447.4 z" fill="rgb(4,2,4)"/>
<!-- Rotated S-curve mark (rendered on top, overlaps text where horns extend) -->
<g transform="translate(1023.5, 719) scale(1.2) rotate(45) translate(-1023.5, -898)">
<path d="M 782.528 691.718 C 818.3 645.424 877.331 606.011 933.236 589.489 C 944.52 628.796 956.906 655.66 982.337 687.618 C 916.516 688.862 848.176 727.505 846.95 801.529 C 846.488 829.446 858.996 848.415 877.865 867.761 C 904.663 887.296 926.615 893.691 959.983 893.908 C 981.802 894.05 1003.73 894.027 1025.56 894.028 L 1176.82 894.162 C 1203.02 894.238 1230.5 892.673 1255.85 899.212 C 1288.73 907.693 1317.8 936.44 1323.18 970.394 C 1328.87 1006.2 1299.46 1063.72 1277.53 1091.35 C 1275.68 1094.84 1261.29 1112.41 1258.16 1115.99 C 1220.7 1158.33 1172.55 1189.82 1118.75 1207.15 C 1110.5 1171.05 1090.11 1133.12 1068.05 1103.77 C 1091.52 1103.62 1105.01 1100.72 1126.69 1091.79 C 1202.51 1060.56 1229.52 964.846 1152.97 915.493 C 1140.95 910.069 1123.47 901.872 1110.32 900.402 C 1080.27 897.04 1045.55 898.048 1015.15 897.994 L 869.677 897.046 C 830.601 897.046 785.856 902.429 753.498 876.682 C 737.523 864.188 727.39 845.672 725.479 825.481 C 721.619 786.772 758.109 721.589 782.528 691.718 z" fill="rgb(136,188,236)"/>
<path d="M 1152.97 915.493 C 1162.68 914.351 1183.15 928.286 1190.82 934.418 C 1228.06 964.188 1257.66 1006.53 1270.6 1052.63 C 1273.04 1061.35 1275.78 1087.36 1277.53 1091.35 C 1275.68 1094.84 1261.29 1112.41 1258.16 1115.99 C 1220.7 1158.33 1172.55 1189.82 1118.75 1207.15 C 1110.5 1171.05 1090.11 1133.12 1068.05 1103.77 C 1091.52 1103.62 1105.01 1100.72 1126.69 1091.79 C 1202.51 1060.56 1229.52 964.846 1152.97 915.493 z" fill="rgb(56,154,216)"/>
<path d="M 782.528 691.718 C 818.3 645.424 877.331 606.011 933.236 589.489 C 944.52 628.796 956.906 655.66 982.337 687.618 C 916.516 688.862 848.176 727.505 846.95 801.529 C 846.488 829.446 858.996 848.415 877.865 867.761 C 873.112 866.396 862.152 857.998 858.04 854.663 C 817.309 821.638 786.669 767.845 783.818 714.995 C 783.414 707.503 783.54 700.146 782.656 692.723 L 782.528 691.718 z" fill="rgb(56,154,216)"/>
<path d="M 602.084 895.192 C 705.574 889.339 793.658 907.831 880.463 966.171 C 968.901 1025.61 1039.81 1116.37 1071.72 1218.23 C 1040.52 1221.96 1018.53 1222.29 987.296 1219.03 C 975.732 1218.81 951.436 1212.89 939.902 1209.56 C 857.463 1185.44 788.332 1128.91 748.318 1052.9 C 730.954 1019.21 726.551 981.274 699.751 953.594 C 674.804 927.827 642.7 914.594 608.639 905.983 C 602.704 904.482 593.838 903.13 589.457 899.079 L 588.901 898.028 C 588.658 897.422 588.414 896.815 588.171 896.208 C 592.751 895.859 597.708 895.026 602.084 895.192 z" fill="rgb(23,21,60)"/>
<path d="M 602.084 895.192 C 705.574 889.339 793.658 907.831 880.463 966.171 C 968.901 1025.61 1039.81 1116.37 1071.72 1218.23 C 1040.52 1221.96 1018.53 1222.29 987.296 1219.03 C 944.614 1055.22 779.989 909.659 609.551 897.909 C 608.19 897.617 602.428 896.899 601.692 896.374 C 601.587 895.902 601.799 895.775 602.084 895.192 z" fill="rgb(56,154,216)"/>
<path d="M 588.171 896.208 C 592.751 895.859 597.708 895.026 602.084 895.192 C 601.799 895.775 601.587 895.902 601.692 896.374 C 602.428 896.899 608.19 897.617 609.551 897.909 C 602.668 898.038 595.785 898.078 588.901 898.028 C 588.658 897.422 588.414 896.815 588.171 896.208 z" fill="rgb(36,116,180)"/>
<path d="M 979.015 578.239 C 1005.02 574.436 1037.35 575.239 1063.31 577.748 C 1146.62 589.033 1222.12 632.686 1273.47 699.25 C 1295.44 727.809 1317.61 766.027 1326.88 800.433 C 1344.73 866.736 1405.84 883.212 1466.14 890.727 C 1470.05 891.214 1474.29 891.876 1478.34 891.794 L 1479.74 894.206 C 1453.6 895.792 1439.82 898.323 1411.99 898.365 C 1350 902.5 1266.48 882.172 1211.4 853.764 C 1102.31 797.49 1016.73 694.68 979.015 578.239 z" fill="rgb(12,250,247)"/>
<path d="M 979.015 578.239 C 1005.02 574.436 1037.35 575.239 1063.31 577.748 C 1066.33 590.612 1072.54 607.158 1077.16 619.636 C 1111.89 713.344 1176.94 792.76 1261.97 845.27 C 1294.54 865.465 1330.22 880.152 1367.57 888.741 C 1382.12 892.108 1397.41 893.406 1411 898.124 C 1411.33 898.204 1411.66 898.285 1411.99 898.365 C 1350 902.5 1266.48 882.172 1211.4 853.764 C 1102.31 797.49 1016.73 694.68 979.015 578.239 z" fill="rgb(56,154,216)"/>
<path d="M 589.457 899.079 C 583.662 899.178 574.375 899.803 568.86 899.523 L 568.63 899.178 C 568.17 899.167 567.71 899.156 567.251 899.144 C 567.183 899.011 567.116 898.878 567.049 898.744 C 566.903 898.877 586.81 896.357 588.171 896.208 C 588.414 896.815 588.658 897.422 588.901 898.028 L 589.457 899.079 z" fill="rgb(23,21,60)"/>
<path d="M 1478.34 891.794 C 1481.42 892.127 1486.55 893.279 1479.74 894.206 L 1478.34 891.794 z" fill="rgb(36,116,180)"/>
</g>
</svg>
